<?xml version="1.0" encoding="UTF-8"?>
<svg xmlns="http://www.w3.org/2000/svg" xmlns:xlink="http://www.w3.org/1999/xlink" width="36px" height="37px" viewBox="0 0 36 37" version="1.1">
<g id="surface1">
<path style=" stroke:none;fill-rule:nonzero;fill:rgb(87.058824%,87.058824%,87.058824%);fill-opacity:1;" d="M 20.535156 10.886719 C 20.597656 10.894531 20.660156 10.902344 20.722656 10.90625 C 22 11.046875 23.351562 11.652344 24.332031 12.503906 C 24.351562 12.519531 24.371094 12.535156 24.390625 12.554688 C 24.855469 12.953125 24.855469 12.953125 25.035156 13.15625 C 25.035156 13.179688 25.035156 13.199219 25.035156 13.222656 C 25.054688 13.222656 25.078125 13.222656 25.101562 13.222656 C 25.148438 13.277344 25.191406 13.328125 25.234375 13.382812 C 25.261719 13.417969 25.285156 13.453125 25.3125 13.488281 C 25.34375 13.527344 25.371094 13.5625 25.398438 13.601562 C 25.414062 13.621094 25.429688 13.640625 25.445312 13.660156 C 25.542969 13.785156 25.636719 13.917969 25.734375 14.046875 C 25.757812 14.082031 25.757812 14.082031 25.785156 14.117188 C 25.875 14.242188 25.949219 14.371094 26.019531 14.503906 C 26.054688 14.570312 26.089844 14.636719 26.128906 14.703125 C 26.382812 15.148438 26.570312 15.613281 26.734375 16.101562 C 26.742188 16.128906 26.753906 16.160156 26.761719 16.1875 C 27.273438 17.734375 27.394531 19.449219 26.964844 21.035156 C 26.957031 21.078125 26.957031 21.078125 26.945312 21.117188 C 26.796875 21.691406 26.621094 22.25 26.367188 22.78125 C 26.339844 22.84375 26.339844 22.84375 26.308594 22.90625 C 25.941406 23.695312 25.457031 24.414062 24.878906 25.058594 C 24.8125 25.132812 24.746094 25.210938 24.679688 25.289062 C 24.480469 25.523438 24.261719 25.734375 24.035156 25.933594 C 24.003906 25.960938 23.972656 25.988281 23.941406 26.015625 C 23.523438 26.390625 23.074219 26.738281 22.601562 27.03125 C 22.558594 27.054688 22.519531 27.082031 22.480469 27.105469 C 22.09375 27.347656 21.703125 27.5625 21.292969 27.753906 C 21.238281 27.78125 21.179688 27.808594 21.125 27.839844 C 20.835938 27.980469 20.539062 28.089844 20.234375 28.195312 C 20.191406 28.210938 20.152344 28.222656 20.109375 28.238281 C 19.125 28.570312 18.148438 28.714844 17.117188 28.714844 C 17.011719 28.714844 16.90625 28.714844 16.800781 28.71875 C 16.394531 28.71875 16 28.699219 15.601562 28.640625 C 15.570312 28.636719 15.539062 28.632812 15.507812 28.628906 C 15.4375 28.617188 15.367188 28.605469 15.296875 28.59375 C 15.273438 28.589844 15.246094 28.585938 15.222656 28.582031 C 15.007812 28.542969 14.792969 28.488281 14.582031 28.433594 C 14.488281 28.40625 14.398438 28.382812 14.300781 28.363281 C 13.992188 28.292969 13.703125 28.164062 13.414062 28.035156 C 13.382812 28.019531 13.382812 28.019531 13.351562 28.007812 C 12.894531 27.804688 12.449219 27.59375 12.035156 27.304688 C 12.054688 27.292969 12.078125 27.28125 12.101562 27.269531 C 12.144531 27.292969 12.1875 27.316406 12.230469 27.339844 C 12.695312 27.570312 13.226562 27.722656 13.734375 27.820312 C 13.769531 27.824219 13.769531 27.824219 13.804688 27.832031 C 15.710938 28.199219 17.664062 27.925781 19.417969 27.085938 C 19.441406 27.074219 19.460938 27.0625 19.484375 27.054688 C 19.628906 26.980469 19.769531 26.90625 19.910156 26.820312 C 19.964844 26.789062 19.964844 26.789062 20.066406 26.789062 C 20.066406 26.769531 20.066406 26.746094 20.066406 26.722656 C 20.09375 26.707031 20.121094 26.695312 20.152344 26.679688 C 20.277344 26.613281 20.402344 26.539062 20.523438 26.457031 C 20.546875 26.445312 20.570312 26.429688 20.59375 26.414062 C 20.824219 26.265625 21.046875 26.105469 21.253906 25.925781 C 21.332031 25.867188 21.332031 25.867188 21.398438 25.867188 C 21.398438 25.84375 21.398438 25.820312 21.398438 25.796875 C 21.457031 25.742188 21.457031 25.742188 21.542969 25.679688 C 22.03125 25.285156 22.519531 24.824219 22.867188 24.289062 C 22.886719 24.289062 22.910156 24.289062 22.933594 24.289062 C 22.941406 24.269531 22.949219 24.253906 22.957031 24.234375 C 23.007812 24.136719 23.070312 24.050781 23.132812 23.960938 C 23.777344 23.015625 24.261719 21.960938 24.5 20.828125 C 24.507812 20.785156 24.519531 20.742188 24.527344 20.699219 C 24.867188 18.964844 24.621094 17.132812 23.664062 15.644531 C 23.421875 15.277344 23.144531 14.941406 22.839844 14.625 C 22.820312 14.609375 22.804688 14.589844 22.785156 14.570312 C 22.703125 14.484375 22.621094 14.410156 22.519531 14.347656 C 22.492188 14.328125 22.464844 14.304688 22.433594 14.285156 C 22.433594 14.261719 22.433594 14.242188 22.433594 14.21875 C 22.410156 14.210938 22.390625 14.203125 22.367188 14.195312 C 22.28125 14.15625 22.222656 14.117188 22.148438 14.058594 C 21.679688 13.691406 21.160156 13.476562 20.601562 13.292969 C 20.570312 13.28125 20.539062 13.273438 20.511719 13.261719 C 19.300781 12.914062 17.984375 13.167969 16.898438 13.773438 C 16.726562 13.875 16.5625 13.992188 16.398438 14.113281 C 16.371094 14.136719 16.34375 14.15625 16.316406 14.175781 C 15.457031 14.839844 14.90625 15.78125 14.65625 16.851562 C 14.652344 16.875 14.644531 16.898438 14.640625 16.921875 C 14.570312 17.234375 14.5625 17.550781 14.546875 17.871094 C 14.546875 17.921875 14.546875 17.921875 14.542969 17.976562 C 14.539062 18.058594 14.535156 18.140625 14.535156 18.226562 C 14.433594 18.15625 14.417969 18.140625 14.371094 18.035156 C 14.355469 17.996094 14.355469 17.996094 14.339844 17.957031 C 14.328125 17.929688 14.316406 17.90625 14.304688 17.875 C 14.292969 17.847656 14.28125 17.820312 14.269531 17.792969 C 13.785156 16.625 13.742188 15.4375 14.199219 14.25 C 14.277344 14.0625 14.371094 13.882812 14.464844 13.703125 C 14.476562 13.679688 14.492188 13.660156 14.503906 13.636719 C 14.734375 13.203125 14.734375 13.203125 14.867188 13.019531 C 14.886719 13.019531 14.910156 13.019531 14.933594 13.019531 C 14.941406 13 14.953125 12.976562 14.960938 12.957031 C 15.03125 12.820312 15.132812 12.71875 15.234375 12.605469 C 15.25 12.589844 15.265625 12.570312 15.285156 12.550781 C 15.582031 12.222656 15.894531 11.953125 16.265625 11.714844 C 16.300781 11.695312 16.300781 11.695312 16.332031 11.675781 C 16.816406 11.375 17.316406 11.160156 17.867188 11.03125 C 17.90625 11.023438 17.945312 11.011719 17.984375 11.003906 C 18.824219 10.808594 19.683594 10.761719 20.535156 10.886719 Z M 20.535156 10.886719 "/>
<path style=" stroke:none;fill-rule:nonzero;fill:rgb(84.705883%,84.705883%,84.705883%);fill-opacity:1;" d="M 18.234375 2.054688 C 18.304688 2.09375 18.371094 2.136719 18.4375 2.183594 C 18.597656 2.289062 18.761719 2.386719 18.933594 2.480469 C 19.230469 2.644531 19.527344 2.816406 19.816406 3 C 19.898438 3.046875 19.984375 3.09375 20.066406 3.140625 C 20.273438 3.257812 20.480469 3.378906 20.683594 3.503906 C 21.011719 3.695312 21.335938 3.886719 21.667969 4.074219 C 22.039062 4.285156 22.410156 4.503906 22.777344 4.726562 C 23.050781 4.890625 23.332031 5.054688 23.609375 5.21875 C 23.964844 5.425781 24.320312 5.636719 24.671875 5.851562 C 24.9375 6.011719 25.199219 6.171875 25.464844 6.328125 C 25.71875 6.480469 25.972656 6.636719 26.226562 6.792969 C 26.390625 6.894531 26.5625 6.996094 26.734375 7.089844 C 27.257812 7.386719 27.257812 7.386719 27.492188 7.554688 C 27.570312 7.609375 27.648438 7.652344 27.734375 7.699219 C 27.9375 7.8125 28.136719 7.929688 28.335938 8.046875 C 28.375 8.070312 28.414062 8.09375 28.449219 8.117188 C 28.816406 8.332031 29.175781 8.554688 29.539062 8.78125 C 29.679688 8.867188 29.824219 8.957031 29.964844 9.042969 C 30.019531 9.078125 30.074219 9.109375 30.128906 9.144531 C 30.15625 9.160156 30.183594 9.175781 30.210938 9.195312 C 30.308594 9.257812 30.410156 9.316406 30.507812 9.378906 C 30.5625 9.414062 30.5625 9.414062 30.617188 9.445312 C 30.691406 9.492188 30.761719 9.535156 30.835938 9.578125 C 30.988281 9.671875 31.140625 9.769531 31.292969 9.863281 C 31.328125 9.882812 31.328125 9.882812 31.363281 9.90625 C 31.421875 9.941406 31.480469 9.976562 31.539062 10.011719 C 31.757812 10.152344 31.757812 10.152344 31.800781 10.277344 C 31.804688 10.328125 31.808594 10.378906 31.808594 10.425781 C 31.808594 10.457031 31.808594 10.488281 31.8125 10.519531 C 31.8125 10.570312 31.8125 10.570312 31.816406 10.621094 C 31.832031 11.039062 31.859375 11.457031 31.890625 11.875 C 31.898438 11.984375 31.90625 12.097656 31.914062 12.207031 C 31.96875 12.953125 32.027344 13.703125 32.117188 14.445312 C 32.140625 14.636719 32.15625 14.828125 32.175781 15.015625 C 32.230469 15.546875 32.292969 16.082031 32.351562 16.613281 C 32.410156 17.140625 32.46875 17.664062 32.515625 18.191406 C 32.519531 18.214844 32.519531 18.238281 32.523438 18.257812 C 32.554688 18.574219 32.578125 18.890625 32.601562 19.207031 C 32.671875 20.183594 32.769531 21.164062 32.910156 22.132812 C 32.941406 22.363281 32.96875 22.589844 32.996094 22.816406 C 33.027344 23.082031 33.0625 23.347656 33.101562 23.609375 C 33.164062 24.027344 33.164062 24.027344 33.078125 24.191406 C 33.054688 24.222656 33.027344 24.253906 33.003906 24.289062 C 32.980469 24.320312 32.957031 24.351562 32.929688 24.386719 C 32.910156 24.410156 32.890625 24.4375 32.867188 24.460938 C 32.84375 24.460938 32.824219 24.460938 32.800781 24.460938 C 32.789062 24.480469 32.78125 24.5 32.773438 24.523438 C 32.734375 24.59375 32.695312 24.65625 32.644531 24.722656 C 32.628906 24.746094 32.609375 24.769531 32.59375 24.792969 C 32.574219 24.820312 32.554688 24.84375 32.535156 24.871094 C 32.515625 24.894531 32.496094 24.921875 32.476562 24.949219 C 32.34375 25.125 32.210938 25.292969 32.070312 25.457031 C 31.953125 25.601562 31.84375 25.746094 31.734375 25.898438 C 31.589844 26.097656 31.4375 26.292969 31.277344 26.480469 C 31.152344 26.628906 31.035156 26.78125 30.921875 26.9375 C 30.804688 27.097656 30.679688 27.25 30.550781 27.40625 C 30.445312 27.535156 30.34375 27.667969 30.242188 27.804688 C 30.011719 28.105469 29.78125 28.402344 29.546875 28.695312 C 29.441406 28.828125 29.335938 28.964844 29.234375 29.101562 C 29.21875 29.121094 29.207031 29.136719 29.191406 29.15625 C 29.121094 29.253906 29.050781 29.347656 28.980469 29.445312 C 28.96875 29.464844 28.953125 29.484375 28.941406 29.503906 C 28.902344 29.554688 28.863281 29.609375 28.828125 29.664062 C 28.796875 29.699219 28.796875 29.699219 28.765625 29.738281 C 28.746094 29.738281 28.722656 29.738281 28.699219 29.738281 C 28.691406 29.757812 28.683594 29.777344 28.675781 29.796875 C 28.558594 30.007812 28.328125 30.082031 28.121094 30.175781 C 28.054688 30.207031 27.988281 30.238281 27.921875 30.265625 C 27.890625 30.28125 27.859375 30.296875 27.824219 30.3125 C 27.703125 30.367188 27.582031 30.425781 27.460938 30.484375 C 27.328125 30.546875 27.191406 30.613281 27.058594 30.675781 C 26.894531 30.75 26.730469 30.832031 26.570312 30.910156 C 26.316406 31.035156 26.0625 31.152344 25.808594 31.269531 C 25.636719 31.347656 25.46875 31.429688 25.296875 31.511719 C 25.277344 31.519531 25.257812 31.53125 25.234375 31.539062 C 25.214844 31.550781 25.195312 31.558594 25.175781 31.570312 C 24.972656 31.667969 24.769531 31.761719 24.5625 31.855469 C 24.289062 31.976562 24.019531 32.105469 23.753906 32.246094 C 23.597656 32.328125 23.441406 32.398438 23.277344 32.464844 C 23.132812 32.527344 22.992188 32.597656 22.851562 32.667969 C 22.675781 32.753906 22.503906 32.835938 22.324219 32.910156 C 22.15625 32.980469 22 33.058594 21.839844 33.144531 C 21.6875 33.222656 21.527344 33.292969 21.371094 33.359375 C 21.238281 33.414062 21.109375 33.476562 20.984375 33.539062 C 20.773438 33.640625 20.5625 33.734375 20.351562 33.832031 C 20.042969 33.96875 19.738281 34.113281 19.433594 34.257812 C 19.1875 34.375 18.9375 34.492188 18.6875 34.601562 C 18.515625 34.683594 18.34375 34.765625 18.175781 34.851562 C 18.015625 34.902344 17.878906 34.820312 17.734375 34.75 C 17.695312 34.730469 17.65625 34.710938 17.617188 34.691406 C 17.558594 34.664062 17.558594 34.664062 17.5 34.636719 C 17.28125 34.53125 17.0625 34.429688 16.84375 34.328125 C 16.609375 34.222656 16.382812 34.117188 16.15625 33.996094 C 15.980469 33.90625 15.804688 33.828125 15.625 33.746094 C 15.324219 33.605469 15.019531 33.46875 14.726562 33.3125 C 14.480469 33.1875 14.226562 33.074219 13.976562 32.957031 C 13.746094 32.855469 13.519531 32.746094 13.292969 32.628906 C 13.074219 32.515625 12.851562 32.414062 12.625 32.3125 C 12.359375 32.191406 12.097656 32.066406 11.839844 31.933594 C 11.660156 31.839844 11.480469 31.753906 11.300781 31.671875 C 11.074219 31.570312 10.851562 31.460938 10.632812 31.34375 C 10.46875 31.261719 10.300781 31.183594 10.132812 31.105469 C 9.941406 31.019531 9.75 30.929688 9.566406 30.832031 C 9.386719 30.742188 9.210938 30.652344 9.035156 30.566406 C 9.011719 30.554688 8.988281 30.542969 8.964844 30.53125 C 8.820312 30.464844 8.675781 30.394531 8.527344 30.328125 C 8.492188 30.3125 8.457031 30.292969 8.421875 30.277344 C 8.351562 30.246094 8.28125 30.210938 8.210938 30.179688 C 7.933594 30.050781 7.679688 29.929688 7.5 29.667969 C 7.5 29.644531 7.5 29.625 7.5 29.601562 C 7.476562 29.601562 7.457031 29.601562 7.433594 29.601562 C 7.386719 29.539062 7.34375 29.480469 7.296875 29.417969 C 7.21875 29.308594 7.140625 29.203125 7.058594 29.09375 C 7.035156 29.0625 7.035156 29.0625 7.011719 29.03125 C 6.878906 28.863281 6.746094 28.695312 6.609375 28.53125 C 6.519531 28.417969 6.429688 28.304688 6.339844 28.1875 C 6.25 28.070312 6.15625 27.949219 6.058594 27.832031 C 6.042969 27.808594 6.023438 27.785156 6.003906 27.761719 C 5.910156 27.640625 5.816406 27.523438 5.722656 27.402344 C 5.535156 27.167969 5.347656 26.929688 5.164062 26.6875 C 5.042969 26.527344 4.914062 26.367188 4.785156 26.210938 C 4.734375 26.140625 4.734375 26.140625 4.734375 26.070312 C 4.710938 26.070312 4.6875 26.070312 4.667969 26.070312 C 4.621094 26.015625 4.578125 25.957031 4.535156 25.894531 C 4.507812 25.859375 4.480469 25.820312 4.453125 25.78125 C 4.441406 25.761719 4.425781 25.742188 4.410156 25.722656 C 4.335938 25.621094 4.261719 25.519531 4.183594 25.421875 C 4.066406 25.265625 3.945312 25.109375 3.828125 24.953125 C 3.722656 24.808594 3.617188 24.671875 3.507812 24.535156 C 3.480469 24.503906 3.457031 24.472656 3.433594 24.441406 C 3.394531 24.390625 3.351562 24.34375 3.3125 24.296875 C 3.175781 24.144531 3.179688 23.992188 3.1875 23.792969 C 3.207031 23.53125 3.238281 23.273438 3.269531 23.015625 C 3.292969 22.816406 3.3125 22.617188 3.335938 22.414062 C 3.335938 22.386719 3.339844 22.359375 3.34375 22.328125 C 3.355469 22.214844 3.367188 22.097656 3.378906 21.984375 C 3.425781 21.46875 3.425781 21.46875 3.464844 21.253906 C 3.523438 20.910156 3.550781 20.558594 3.582031 20.207031 C 3.597656 20.0625 3.613281 19.914062 3.625 19.769531 C 3.632812 19.714844 3.632812 19.714844 3.636719 19.660156 C 3.664062 19.375 3.695312 19.089844 3.726562 18.808594 C 3.78125 18.304688 3.832031 17.804688 3.875 17.300781 C 3.894531 17.03125 3.921875 16.761719 3.945312 16.492188 C 3.949219 16.445312 3.953125 16.398438 3.957031 16.351562 C 3.964844 16.28125 3.972656 16.214844 3.976562 16.148438 C 3.980469 16.109375 3.984375 16.070312 3.988281 16.03125 C 3.996094 15.949219 4.011719 15.875 4.035156 15.792969 C 4.039062 15.734375 4.042969 15.671875 4.050781 15.613281 C 4.050781 15.578125 4.054688 15.542969 4.058594 15.503906 C 4.0625 15.433594 4.066406 15.359375 4.070312 15.285156 C 4.085938 15.082031 4.105469 14.875 4.132812 14.671875 C 4.179688 14.277344 4.203125 13.882812 4.234375 13.484375 C 4.238281 13.40625 4.246094 13.324219 4.25 13.246094 C 4.257812 13.125 4.269531 13.007812 4.277344 12.890625 C 4.292969 12.6875 4.304688 12.488281 4.324219 12.285156 C 4.355469 11.855469 4.378906 11.425781 4.386719 10.996094 C 4.390625 10.917969 4.394531 10.84375 4.398438 10.765625 C 4.398438 10.691406 4.398438 10.617188 4.398438 10.542969 C 4.398438 10.285156 4.398438 10.285156 4.492188 10.175781 C 4.582031 10.109375 4.671875 10.054688 4.765625 10.003906 C 4.839844 9.957031 4.914062 9.914062 4.984375 9.867188 C 5.046875 9.832031 5.105469 9.796875 5.164062 9.761719 C 5.273438 9.699219 5.378906 9.636719 5.484375 9.570312 C 5.507812 9.558594 5.527344 9.546875 5.550781 9.53125 C 5.824219 9.367188 6.09375 9.195312 6.363281 9.019531 C 6.976562 8.625 7.601562 8.246094 8.226562 7.871094 C 8.429688 7.75 8.632812 7.625 8.835938 7.496094 C 9.707031 6.941406 10.601562 6.414062 11.492188 5.882812 C 11.515625 5.871094 11.539062 5.855469 11.5625 5.839844 C 11.679688 5.773438 11.792969 5.707031 11.910156 5.640625 C 12.089844 5.539062 12.265625 5.429688 12.445312 5.324219 C 12.480469 5.304688 12.511719 5.285156 12.550781 5.261719 C 12.800781 5.109375 13.054688 4.957031 13.304688 4.800781 C 13.46875 4.695312 13.636719 4.601562 13.804688 4.507812 C 13.972656 4.414062 14.136719 4.3125 14.300781 4.214844 C 14.523438 4.078125 14.75 3.945312 14.976562 3.820312 C 15.125 3.738281 15.269531 3.652344 15.414062 3.566406 C 15.441406 3.550781 15.472656 3.53125 15.503906 3.511719 C 15.671875 3.414062 15.839844 3.3125 16.003906 3.207031 C 16.164062 3.105469 16.324219 3.019531 16.496094 2.933594 C 16.613281 2.871094 16.722656 2.804688 16.832031 2.734375 C 17.113281 2.558594 17.398438 2.398438 17.6875 2.238281 C 17.742188 2.207031 17.796875 2.175781 17.847656 2.140625 C 17.875 2.125 17.898438 2.109375 17.925781 2.09375 C 17.949219 2.078125 17.972656 2.0625 17.996094 2.050781 C 18.089844 2.011719 18.140625 2.027344 18.234375 2.054688 Z M 17.871094 2.714844 C 17.839844 2.730469 17.808594 2.746094 17.777344 2.765625 C 17.746094 2.78125 17.710938 2.800781 17.679688 2.820312 C 17.644531 2.839844 17.613281 2.855469 17.578125 2.875 C 17.308594 3.023438 17.042969 3.179688 16.78125 3.335938 C 16.675781 3.402344 16.566406 3.464844 16.457031 3.523438 C 16.25 3.640625 16.042969 3.761719 15.839844 3.882812 C 15.761719 3.929688 15.6875 3.976562 15.609375 4.019531 C 15.574219 4.042969 15.535156 4.0625 15.5 4.085938 C 15.378906 4.15625 15.257812 4.226562 15.140625 4.296875 C 14.960938 4.402344 14.785156 4.511719 14.613281 4.621094 C 14.320312 4.808594 14.027344 4.992188 13.722656 5.15625 C 13.625 5.210938 13.53125 5.269531 13.433594 5.328125 C 13.304688 5.40625 13.175781 5.476562 13.039062 5.546875 C 12.816406 5.660156 12.601562 5.792969 12.390625 5.925781 C 12.191406 6.050781 11.992188 6.171875 11.789062 6.285156 C 11.667969 6.355469 11.546875 6.425781 11.425781 6.496094 C 11.402344 6.507812 11.378906 6.523438 11.355469 6.535156 C 11.234375 6.605469 11.117188 6.675781 11 6.75 C 10.957031 6.773438 10.914062 6.800781 10.871094 6.828125 C 10.847656 6.839844 10.824219 6.855469 10.796875 6.871094 C 10.75 6.898438 10.703125 6.929688 10.652344 6.957031 C 10.53125 7.03125 10.410156 7.109375 10.289062 7.191406 C 10.105469 7.316406 9.914062 7.429688 9.722656 7.542969 C 9.421875 7.714844 9.128906 7.894531 8.839844 8.085938 C 8.699219 8.179688 8.558594 8.265625 8.414062 8.347656 C 8.257812 8.4375 8.109375 8.53125 7.957031 8.625 C 7.71875 8.773438 7.480469 8.917969 7.242188 9.0625 C 7.21875 9.078125 7.199219 9.089844 7.175781 9.101562 C 7.070312 9.164062 6.964844 9.226562 6.859375 9.289062 C 6.671875 9.402344 6.484375 9.519531 6.304688 9.644531 C 6.171875 9.738281 6.035156 9.820312 5.898438 9.902344 C 5.714844 10.015625 5.535156 10.125 5.355469 10.242188 C 5.304688 10.273438 5.253906 10.300781 5.203125 10.332031 C 5.121094 10.390625 5.101562 10.421875 5.066406 10.519531 C 5.058594 10.621094 5.058594 10.621094 5.0625 10.738281 C 5.0625 10.761719 5.0625 10.78125 5.0625 10.804688 C 5.0625 10.855469 5.0625 10.90625 5.0625 10.953125 C 5.066406 11.09375 5.066406 11.230469 5.066406 11.371094 C 5.066406 11.398438 5.066406 11.429688 5.066406 11.460938 C 5.066406 11.84375 5.058594 12.230469 5.050781 12.613281 C 5.050781 12.648438 5.050781 12.6875 5.050781 12.726562 C 5.046875 12.953125 5.039062 13.179688 5.035156 13.40625 C 5.03125 13.605469 5.027344 13.800781 5.023438 13.996094 C 5.015625 14.378906 5.007812 14.761719 5 15.144531 C 5 15.105469 5 15.070312 4.996094 15.035156 C 4.996094 14.902344 4.992188 14.769531 4.988281 14.632812 C 4.984375 14.578125 4.984375 14.519531 4.984375 14.460938 C 4.972656 14.0625 4.957031 13.664062 4.933594 13.261719 C 4.929688 13.210938 4.925781 13.160156 4.925781 13.105469 C 4.921875 13.085938 4.921875 13.0625 4.921875 13.039062 C 4.890625 12.5625 4.878906 12.089844 4.867188 11.613281 C 4.84375 11.613281 4.824219 11.613281 4.800781 11.613281 C 4.796875 11.648438 4.796875 11.6875 4.792969 11.722656 C 4.789062 11.859375 4.78125 11.996094 4.773438 12.128906 C 4.769531 12.1875 4.765625 12.246094 4.765625 12.304688 C 4.761719 12.390625 4.753906 12.472656 4.75 12.558594 C 4.75 12.582031 4.75 12.609375 4.746094 12.636719 C 4.738281 12.777344 4.722656 12.914062 4.699219 13.054688 C 4.695312 13.128906 4.6875 13.207031 4.683594 13.285156 C 4.683594 13.328125 4.679688 13.375 4.675781 13.417969 C 4.675781 13.441406 4.675781 13.464844 4.671875 13.488281 C 4.652344 13.839844 4.628906 14.191406 4.585938 14.539062 C 4.515625 15.089844 4.46875 15.644531 4.429688 16.199219 C 4.410156 16.472656 4.386719 16.742188 4.351562 17.015625 C 4.285156 17.539062 4.242188 18.066406 4.191406 18.589844 C 4.1875 18.628906 4.183594 18.667969 4.179688 18.707031 C 4.164062 18.898438 4.144531 19.089844 4.125 19.28125 C 4.09375 19.644531 4.058594 20.007812 4.011719 20.367188 C 4 20.484375 3.992188 20.597656 3.984375 20.714844 C 3.972656 20.855469 3.957031 20.996094 3.9375 21.132812 C 3.886719 21.503906 3.851562 21.871094 3.816406 22.242188 C 3.804688 22.351562 3.796875 22.460938 3.785156 22.574219 C 3.777344 22.644531 3.769531 22.714844 3.761719 22.785156 C 3.746094 22.949219 3.730469 23.109375 3.714844 23.269531 C 3.710938 23.300781 3.707031 23.328125 3.703125 23.355469 C 3.699219 23.40625 3.691406 23.457031 3.6875 23.507812 C 3.644531 23.808594 3.644531 23.808594 3.726562 24.089844 C 3.753906 24.125 3.785156 24.160156 3.8125 24.195312 C 3.828125 24.214844 3.84375 24.234375 3.859375 24.253906 C 3.90625 24.3125 3.953125 24.367188 4 24.425781 C 4.03125 24.464844 4.058594 24.5 4.089844 24.539062 C 4.144531 24.605469 4.203125 24.675781 4.257812 24.746094 C 4.339844 24.847656 4.414062 24.949219 4.488281 25.058594 C 4.542969 25.121094 4.589844 25.152344 4.667969 25.179688 C 4.738281 25.152344 4.738281 25.152344 4.753906 25.085938 C 5.011719 23.648438 4.984375 22.117188 5.035156 20.660156 C 5.039062 20.886719 5.046875 21.117188 5.050781 21.34375 C 5.050781 21.371094 5.050781 21.398438 5.054688 21.429688 C 5.054688 21.488281 5.054688 21.546875 5.058594 21.605469 C 5.0625 21.789062 5.066406 21.972656 5.070312 22.15625 C 5.085938 22.738281 5.101562 23.320312 5.101562 23.90625 C 5.101562 23.988281 5.101562 24.074219 5.105469 24.15625 C 5.105469 24.3125 5.101562 24.464844 5.101562 24.617188 C 5.101562 24.6875 5.101562 24.753906 5.101562 24.824219 C 5.101562 24.851562 5.101562 24.882812 5.101562 24.914062 C 5.101562 25.039062 5.105469 25.117188 5.191406 25.207031 C 5.257812 25.261719 5.328125 25.308594 5.398438 25.351562 C 5.441406 25.382812 5.480469 25.410156 5.523438 25.441406 C 5.5625 25.46875 5.605469 25.5 5.644531 25.527344 C 5.667969 25.542969 5.691406 25.558594 5.714844 25.574219 C 5.960938 25.75 6.210938 25.921875 6.460938 26.089844 C 6.570312 26.164062 6.679688 26.242188 6.789062 26.316406 C 6.832031 26.34375 6.871094 26.371094 6.910156 26.398438 C 7.160156 26.570312 7.160156 26.570312 7.226562 26.613281 C 7.269531 26.644531 7.308594 26.671875 7.351562 26.703125 C 7.449219 26.765625 7.542969 26.832031 7.636719 26.898438 C 7.820312 27.023438 8.003906 27.148438 8.1875 27.269531 C 8.21875 27.289062 8.21875 27.289062 8.25 27.3125 C 8.347656 27.382812 8.347656 27.382812 8.464844 27.40625 C 8.464844 27.429688 8.464844 27.453125 8.464844 27.476562 C 8.484375 27.484375 8.503906 27.496094 8.523438 27.507812 C 8.691406 27.601562 8.847656 27.699219 9.003906 27.8125 C 9.0625 27.859375 9.0625 27.859375 9.132812 27.851562 C 9.132812 27.875 9.132812 27.898438 9.132812 27.921875 C 9.210938 27.976562 9.289062 28.027344 9.371094 28.078125 C 9.421875 28.109375 9.46875 28.140625 9.519531 28.171875 C 9.554688 28.195312 9.554688 28.195312 9.59375 28.21875 C 9.699219 28.285156 9.804688 28.351562 9.910156 28.421875 C 9.9375 28.441406 9.9375 28.441406 9.964844 28.460938 C 10.058594 28.523438 10.152344 28.585938 10.246094 28.652344 C 10.28125 28.675781 10.316406 28.699219 10.355469 28.726562 C 10.402344 28.761719 10.402344 28.761719 10.449219 28.792969 C 10.523438 28.839844 10.582031 28.867188 10.667969 28.878906 C 10.667969 28.902344 10.667969 28.925781 10.667969 28.949219 C 10.742188 29.003906 10.820312 29.050781 10.898438 29.101562 C 10.945312 29.132812 10.996094 29.164062 11.046875 29.195312 C 11.070312 29.210938 11.097656 29.226562 11.121094 29.242188 C 11.246094 29.320312 11.371094 29.402344 11.492188 29.484375 C 11.515625 29.5 11.539062 29.515625 11.5625 29.53125 C 11.730469 29.644531 11.898438 29.757812 12.0625 29.871094 C 12.210938 29.972656 12.363281 30.074219 12.515625 30.175781 C 12.679688 30.28125 12.839844 30.394531 13.003906 30.503906 C 13.269531 30.722656 13.269531 30.722656 13.566406 30.832031 C 13.566406 30.855469 13.566406 30.878906 13.566406 30.902344 C 13.632812 30.949219 13.632812 30.949219 13.71875 31 C 13.828125 31.0625 13.929688 31.128906 14.03125 31.207031 C 14.125 31.289062 14.125 31.289062 14.234375 31.277344 C 14.234375 31.300781 14.234375 31.324219 14.234375 31.347656 C 14.300781 31.398438 14.367188 31.441406 14.4375 31.488281 C 14.480469 31.515625 14.523438 31.542969 14.566406 31.570312 C 14.597656 31.589844 14.597656 31.589844 14.632812 31.613281 C 14.699219 31.65625 14.765625 31.699219 14.832031 31.746094 C 14.855469 31.757812 14.875 31.773438 14.894531 31.789062 C 14.9375 31.816406 14.976562 31.84375 15.019531 31.871094 C 15.117188 31.941406 15.117188 31.941406 15.234375 31.964844 C 15.234375 31.988281 15.234375 32.007812 15.234375 32.03125 C 15.300781 32.082031 15.367188 32.128906 15.4375 32.171875 C 15.480469 32.199219 15.523438 32.226562 15.566406 32.253906 C 15.597656 32.273438 15.597656 32.273438 15.632812 32.296875 C 15.699219 32.339844 15.765625 32.386719 15.832031 32.429688 C 15.855469 32.445312 15.875 32.457031 15.894531 32.472656 C 15.9375 32.5 15.976562 32.527344 16.019531 32.554688 C 16.117188 32.625 16.117188 32.625 16.234375 32.648438 C 16.234375 32.671875 16.234375 32.695312 16.234375 32.71875 C 16.300781 32.769531 16.371094 32.8125 16.441406 32.859375 C 16.484375 32.886719 16.527344 32.914062 16.570312 32.941406 C 16.59375 32.957031 16.613281 32.972656 16.636719 32.984375 C 16.726562 33.042969 16.8125 33.101562 16.898438 33.160156 C 16.929688 33.183594 16.960938 33.207031 16.996094 33.226562 C 17.03125 33.25 17.066406 33.277344 17.101562 33.300781 C 17.140625 33.328125 17.179688 33.355469 17.222656 33.382812 C 17.242188 33.398438 17.265625 33.414062 17.285156 33.425781 C 17.328125 33.457031 17.371094 33.484375 17.414062 33.515625 C 17.515625 33.582031 17.617188 33.652344 17.714844 33.726562 C 17.765625 33.765625 17.765625 33.765625 17.820312 33.804688 C 17.851562 33.824219 17.882812 33.847656 17.914062 33.871094 C 17.996094 33.925781 17.996094 33.925781 18.085938 33.910156 C 18.167969 33.882812 18.226562 33.847656 18.296875 33.796875 C 18.425781 33.707031 18.554688 33.617188 18.6875 33.53125 C 18.957031 33.355469 19.222656 33.171875 19.488281 32.988281 C 19.785156 32.78125 20.082031 32.582031 20.382812 32.382812 C 20.398438 32.367188 20.417969 32.355469 20.4375 32.34375 C 20.492188 32.304688 20.546875 32.269531 20.601562 32.234375 C 20.636719 32.210938 20.667969 32.1875 20.703125 32.164062 C 20.789062 32.109375 20.875 32.054688 20.960938 32.003906 C 20.996094 31.976562 21.03125 31.953125 21.066406 31.929688 C 21.066406 31.90625 21.066406 31.882812 21.066406 31.859375 C 21.09375 31.851562 21.125 31.84375 21.152344 31.835938 C 21.273438 31.789062 21.363281 31.730469 21.464844 31.652344 C 21.503906 31.625 21.542969 31.597656 21.582031 31.570312 C 21.613281 31.546875 21.613281 31.546875 21.640625 31.527344 C 21.75 31.449219 21.863281 31.375 21.976562 31.300781 C 21.996094 31.289062 22.015625 31.277344 22.035156 31.261719 C 22.054688 31.25 22.078125 31.234375 22.097656 31.222656 C 22.234375 31.132812 22.367188 31.042969 22.5 30.953125 C 22.691406 30.824219 22.882812 30.695312 23.078125 30.570312 C 23.234375 30.464844 23.390625 30.363281 23.542969 30.253906 C 23.792969 30.085938 24.042969 29.917969 24.296875 29.75 C 24.410156 29.671875 24.527344 29.597656 24.644531 29.519531 C 24.667969 29.503906 24.691406 29.488281 24.714844 29.472656 C 25.171875 29.167969 25.632812 28.859375 26.089844 28.550781 C 26.332031 28.390625 26.570312 28.226562 26.8125 28.066406 C 26.839844 28.050781 26.867188 28.03125 26.894531 28.011719 C 27.03125 27.921875 27.164062 27.832031 27.300781 27.742188 C 27.59375 27.546875 27.886719 27.347656 28.175781 27.148438 C 28.359375 27.023438 28.546875 26.902344 28.734375 26.78125 C 28.917969 26.664062 29.097656 26.542969 29.273438 26.414062 C 29.414062 26.3125 29.554688 26.21875 29.699219 26.121094 C 29.898438 25.992188 30.097656 25.855469 30.289062 25.714844 C 30.476562 25.582031 30.667969 25.453125 30.859375 25.324219 C 30.882812 25.308594 30.910156 25.289062 30.941406 25.269531 C 30.964844 25.253906 30.988281 25.238281 31.011719 25.222656 C 31.070312 25.183594 31.070312 25.183594 31.101562 25.113281 C 31.101562 25.0625 31.105469 25.007812 31.105469 24.957031 C 31.105469 24.925781 31.105469 24.894531 31.105469 24.859375 C 31.105469 24.808594 31.105469 24.808594 31.101562 24.753906 C 31.101562 24.714844 31.101562 24.675781 31.101562 24.640625 C 31.101562 24.558594 31.101562 24.476562 31.101562 24.394531 C 31.101562 24.265625 31.101562 24.136719 31.101562 24.007812 C 31.101562 23.710938 31.101562 23.414062 31.101562 23.113281 C 31.097656 22.820312 31.097656 22.527344 31.097656 22.234375 C 31.097656 22.105469 31.097656 21.980469 31.097656 21.851562 C 31.097656 21.773438 31.097656 21.695312 31.097656 21.617188 C 31.097656 21.566406 31.097656 21.566406 31.097656 21.511719 C 31.097656 21.347656 31.101562 21.195312 31.132812 21.035156 C 31.144531 21.179688 31.152344 21.328125 31.164062 21.472656 C 31.164062 21.496094 31.164062 21.519531 31.167969 21.542969 C 31.183594 21.816406 31.203125 22.085938 31.214844 22.355469 C 31.257812 23.171875 31.316406 23.988281 31.402344 24.800781 C 31.40625 24.835938 31.40625 24.835938 31.410156 24.871094 C 31.421875 24.976562 31.4375 25.078125 31.464844 25.179688 C 31.585938 25.191406 31.644531 25.199219 31.742188 25.117188 C 31.765625 25.089844 31.785156 25.0625 31.808594 25.03125 C 31.847656 24.984375 31.847656 24.984375 31.886719 24.9375 C 31.914062 24.90625 31.941406 24.871094 31.964844 24.839844 C 31.992188 24.804688 32.019531 24.773438 32.046875 24.738281 C 32.097656 24.675781 32.148438 24.609375 32.199219 24.546875 C 32.253906 24.476562 32.3125 24.40625 32.367188 24.339844 C 32.441406 24.265625 32.441406 24.265625 32.433594 24.1875 C 32.457031 24.1875 32.476562 24.1875 32.5 24.1875 C 32.644531 24.015625 32.644531 23.890625 32.632812 23.671875 C 32.625 23.554688 32.609375 23.441406 32.59375 23.324219 C 32.542969 22.894531 32.496094 22.464844 32.449219 22.035156 C 32.445312 22 32.441406 21.964844 32.4375 21.929688 C 32.40625 21.601562 32.371094 21.273438 32.335938 20.945312 C 32.332031 20.902344 32.328125 20.859375 32.324219 20.816406 C 32.316406 20.742188 32.308594 20.667969 32.300781 20.59375 C 32.28125 20.425781 32.265625 20.257812 32.242188 20.085938 C 32.195312 19.679688 32.15625 19.273438 32.117188 18.863281 C 32.101562 18.71875 32.089844 18.574219 32.074219 18.429688 C 32.070312 18.394531 32.066406 18.359375 32.0625 18.324219 C 32.023438 17.90625 31.980469 17.488281 31.933594 17.070312 C 31.871094 16.496094 31.816406 15.921875 31.761719 15.347656 C 31.71875 14.9375 31.679688 14.527344 31.632812 14.113281 C 31.625 14.054688 31.625 14.054688 31.621094 13.992188 C 31.609375 13.886719 31.59375 13.777344 31.582031 13.667969 C 31.574219 13.59375 31.566406 13.515625 31.558594 13.4375 C 31.542969 13.308594 31.527344 13.179688 31.511719 13.050781 C 31.480469 12.769531 31.457031 12.488281 31.449219 12.207031 C 31.445312 12.066406 31.445312 12.066406 31.367188 11.957031 C 31.3125 12.011719 31.328125 12.074219 31.324219 12.152344 C 31.324219 12.183594 31.324219 12.21875 31.320312 12.253906 C 31.320312 12.292969 31.320312 12.328125 31.320312 12.367188 C 31.308594 12.65625 31.292969 12.945312 31.269531 13.234375 C 31.226562 13.722656 31.210938 14.214844 31.191406 14.703125 C 31.1875 14.738281 31.1875 14.769531 31.1875 14.804688 C 31.183594 14.863281 31.179688 14.925781 31.179688 14.984375 C 31.171875 15.144531 31.164062 15.304688 31.148438 15.460938 C 31.144531 15.5 31.144531 15.535156 31.140625 15.574219 C 31.136719 15.601562 31.136719 15.628906 31.132812 15.65625 C 31.132812 15.617188 31.132812 15.617188 31.132812 15.574219 C 31.140625 14.917969 31.144531 14.261719 31.148438 13.601562 C 31.152344 13.285156 31.152344 12.96875 31.15625 12.648438 C 31.160156 12.375 31.160156 12.097656 31.160156 11.820312 C 31.160156 11.671875 31.164062 11.527344 31.164062 11.378906 C 31.167969 11.242188 31.167969 11.101562 31.167969 10.964844 C 31.167969 10.914062 31.167969 10.863281 31.167969 10.8125 C 31.183594 10.539062 31.183594 10.539062 31.066406 10.304688 C 30.992188 10.253906 30.917969 10.214844 30.832031 10.175781 C 30.792969 10.148438 30.753906 10.125 30.714844 10.097656 C 30.679688 10.074219 30.640625 10.046875 30.601562 10.023438 C 30.578125 10.007812 30.554688 9.996094 30.535156 9.980469 C 30.277344 9.816406 30.019531 9.65625 29.757812 9.5 C 29.589844 9.394531 29.421875 9.292969 29.257812 9.183594 C 29.195312 9.144531 29.128906 9.105469 29.066406 9.070312 C 28.804688 8.925781 28.554688 8.765625 28.304688 8.609375 C 28.277344 8.589844 28.25 8.574219 28.222656 8.554688 C 28.199219 8.542969 28.175781 8.527344 28.152344 8.511719 C 28.078125 8.46875 28.007812 8.425781 27.933594 8.386719 C 27.738281 8.273438 27.546875 8.15625 27.355469 8.039062 C 26.878906 7.742188 26.878906 7.742188 26.394531 7.457031 C 26.253906 7.378906 26.113281 7.292969 25.976562 7.210938 C 25.761719 7.078125 25.542969 6.949219 25.328125 6.824219 C 25.058594 6.667969 24.792969 6.507812 24.527344 6.34375 C 24.242188 6.171875 23.957031 6 23.671875 5.828125 C 23.40625 5.667969 23.140625 5.507812 22.878906 5.34375 C 22.753906 5.269531 22.628906 5.199219 22.503906 5.128906 C 20.996094 4.285156 20.996094 4.285156 20.28125 3.835938 C 19.769531 3.511719 19.238281 3.21875 18.703125 2.9375 C 18.550781 2.855469 18.40625 2.769531 18.261719 2.667969 C 18.117188 2.597656 18.007812 2.640625 17.871094 2.714844 Z M 5.101562 25.730469 C 5.089844 25.761719 5.078125 25.796875 5.066406 25.832031 C 5.113281 25.90625 5.15625 25.972656 5.210938 26.042969 C 5.222656 26.0625 5.238281 26.082031 5.253906 26.101562 C 5.289062 26.148438 5.328125 26.195312 5.367188 26.242188 C 5.386719 26.242188 5.410156 26.242188 5.433594 26.242188 C 5.441406 26.269531 5.449219 26.292969 5.457031 26.316406 C 5.503906 26.421875 5.558594 26.488281 5.632812 26.574219 C 5.707031 26.65625 5.773438 26.730469 5.832031 26.824219 C 5.855469 26.824219 5.878906 26.824219 5.898438 26.824219 C 5.90625 26.847656 5.914062 26.871094 5.921875 26.898438 C 5.976562 27.019531 6.050781 27.109375 6.136719 27.207031 C 6.171875 27.25 6.203125 27.289062 6.238281 27.328125 C 6.253906 27.347656 6.269531 27.367188 6.289062 27.386719 C 6.371094 27.484375 6.449219 27.585938 6.527344 27.6875 C 6.640625 27.835938 6.757812 27.984375 6.875 28.132812 C 6.996094 28.28125 7.113281 28.4375 7.222656 28.59375 C 7.238281 28.609375 7.253906 28.625 7.265625 28.640625 C 7.289062 28.640625 7.3125 28.640625 7.332031 28.640625 C 7.339844 28.660156 7.347656 28.675781 7.355469 28.695312 C 7.417969 28.808594 7.492188 28.90625 7.570312 29.007812 C 7.585938 29.027344 7.601562 29.046875 7.617188 29.066406 C 7.648438 29.109375 7.679688 29.148438 7.710938 29.191406 C 7.75 29.238281 7.789062 29.285156 7.824219 29.335938 C 7.996094 29.550781 8.167969 29.652344 8.417969 29.757812 C 8.488281 29.789062 8.558594 29.820312 8.632812 29.851562 C 8.667969 29.867188 8.699219 29.882812 8.738281 29.898438 C 8.863281 29.957031 8.984375 30.019531 9.109375 30.082031 C 9.335938 30.203125 9.566406 30.3125 9.800781 30.417969 C 9.960938 30.492188 10.121094 30.570312 10.28125 30.652344 C 10.398438 30.710938 10.519531 30.769531 10.636719 30.828125 C 10.832031 30.917969 11.019531 31.015625 11.210938 31.113281 C 11.390625 31.207031 11.574219 31.292969 11.761719 31.371094 C 11.886719 31.425781 12.007812 31.488281 12.128906 31.550781 C 12.296875 31.636719 12.460938 31.71875 12.632812 31.792969 C 12.800781 31.863281 12.960938 31.941406 13.121094 32.027344 C 13.402344 32.175781 13.695312 32.308594 13.984375 32.441406 C 14.101562 32.496094 14.21875 32.550781 14.339844 32.605469 C 14.402344 32.632812 14.464844 32.664062 14.527344 32.695312 C 15.210938 33.011719 15.210938 33.011719 15.492188 33.160156 C 15.78125 33.316406 16.085938 33.441406 16.386719 33.574219 C 16.425781 33.589844 16.464844 33.605469 16.503906 33.625 C 16.539062 33.640625 16.574219 33.65625 16.613281 33.671875 C 16.699219 33.710938 16.699219 33.710938 16.800781 33.78125 C 16.84375 33.78125 16.886719 33.78125 16.933594 33.78125 C 16.933594 33.757812 16.933594 33.734375 16.933594 33.710938 C 16.867188 33.664062 16.800781 33.617188 16.730469 33.574219 C 16.554688 33.464844 16.386719 33.347656 16.222656 33.226562 C 16.050781 33.097656 15.878906 32.972656 15.699219 32.855469 C 15.613281 32.796875 15.53125 32.738281 15.445312 32.679688 C 15.425781 32.667969 15.40625 32.652344 15.382812 32.636719 C 15.277344 32.566406 15.175781 32.496094 15.074219 32.417969 C 14.984375 32.355469 14.894531 32.296875 14.796875 32.242188 C 14.722656 32.195312 14.652344 32.144531 14.582031 32.09375 C 14.449219 31.996094 14.3125 31.90625 14.175781 31.816406 C 14.011719 31.707031 13.847656 31.597656 13.683594 31.488281 C 13.664062 31.472656 13.644531 31.457031 13.621094 31.441406 C 13.539062 31.386719 13.453125 31.328125 13.371094 31.269531 C 13.128906 31.101562 12.886719 30.9375 12.640625 30.777344 C 12.5 30.683594 12.359375 30.589844 12.222656 30.492188 C 12.050781 30.375 11.875 30.261719 11.699219 30.148438 C 11.503906 30.023438 11.3125 29.894531 11.125 29.765625 C 10.96875 29.660156 10.8125 29.554688 10.65625 29.449219 C 10.457031 29.320312 10.261719 29.183594 10.066406 29.050781 C 9.855469 28.90625 9.640625 28.765625 9.425781 28.628906 C 9.257812 28.519531 9.089844 28.40625 8.921875 28.292969 C 8.722656 28.152344 8.515625 28.015625 8.3125 27.882812 C 8.210938 27.8125 8.109375 27.746094 8.007812 27.675781 C 7.980469 27.660156 7.957031 27.640625 7.929688 27.625 C 7.878906 27.589844 7.828125 27.554688 7.777344 27.523438 C 7.664062 27.4375 7.664062 27.4375 7.535156 27.40625 C 7.535156 27.386719 7.535156 27.363281 7.535156 27.339844 C 7.464844 27.289062 7.464844 27.289062 7.382812 27.242188 C 7.277344 27.179688 7.175781 27.117188 7.078125 27.042969 C 6.988281 26.976562 6.894531 26.921875 6.800781 26.867188 C 6.714844 26.8125 6.636719 26.753906 6.558594 26.695312 C 6.351562 26.535156 6.132812 26.394531 5.910156 26.253906 C 5.707031 26.125 5.511719 25.984375 5.320312 25.839844 C 5.21875 25.753906 5.21875 25.753906 5.101562 25.730469 Z M 31.011719 25.773438 C 30.976562 25.796875 30.945312 25.820312 30.910156 25.84375 C 30.890625 25.855469 30.871094 25.867188 30.851562 25.878906 C 30.660156 26.003906 30.472656 26.132812 30.285156 26.265625 C 30.183594 26.332031 30.085938 26.398438 29.984375 26.464844 C 29.839844 26.558594 29.699219 26.65625 29.554688 26.753906 C 29.375 26.875 29.191406 27 29.007812 27.121094 C 28.84375 27.230469 28.675781 27.34375 28.511719 27.457031 C 28.363281 27.558594 28.214844 27.65625 28.0625 27.753906 C 27.949219 27.828125 27.839844 27.90625 27.726562 27.984375 C 27.550781 28.105469 27.371094 28.222656 27.191406 28.339844 C 27.046875 28.429688 26.902344 28.523438 26.765625 28.625 C 26.628906 28.726562 26.488281 28.816406 26.34375 28.910156 C 26.164062 29.023438 25.988281 29.140625 25.8125 29.257812 C 25.597656 29.410156 25.378906 29.554688 25.15625 29.699219 C 25.0625 29.761719 24.964844 29.828125 24.867188 29.890625 C 24.75 29.96875 24.632812 30.042969 24.519531 30.121094 C 24.292969 30.269531 24.066406 30.421875 23.84375 30.574219 C 23.695312 30.675781 23.542969 30.773438 23.390625 30.863281 C 23.371094 30.875 23.351562 30.886719 23.332031 30.902344 C 23.332031 30.925781 23.332031 30.945312 23.332031 30.96875 C 23.304688 30.976562 23.304688 30.976562 23.277344 30.980469 C 23.179688 31.011719 23.105469 31.0625 23.019531 31.121094 C 22.925781 31.183594 22.835938 31.242188 22.738281 31.300781 C 22.714844 31.316406 22.691406 31.332031 22.667969 31.347656 C 22.667969 31.371094 22.667969 31.390625 22.667969 31.414062 C 22.648438 31.417969 22.628906 31.425781 22.609375 31.429688 C 22.53125 31.449219 22.480469 31.480469 22.414062 31.523438 C 22.378906 31.546875 22.378906 31.546875 22.34375 31.570312 C 22.320312 31.585938 22.296875 31.601562 22.273438 31.621094 C 22.246094 31.636719 22.222656 31.652344 22.195312 31.671875 C 22.121094 31.722656 22.042969 31.773438 21.964844 31.828125 C 21.945312 31.84375 21.921875 31.855469 21.898438 31.871094 C 21.753906 31.972656 21.609375 32.070312 21.464844 32.167969 C 21.378906 32.230469 21.292969 32.289062 21.207031 32.347656 C 21.1875 32.363281 21.167969 32.375 21.144531 32.390625 C 21.027344 32.472656 20.90625 32.550781 20.785156 32.628906 C 20.601562 32.75 20.421875 32.875 20.242188 33.003906 C 20.222656 33.019531 20.199219 33.035156 20.175781 33.050781 C 20.15625 33.066406 20.136719 33.078125 20.117188 33.09375 C 20.066406 33.128906 20.066406 33.128906 20 33.164062 C 20 33.1875 20 33.207031 20 33.230469 C 19.976562 33.238281 19.953125 33.246094 19.929688 33.253906 C 19.808594 33.3125 19.703125 33.386719 19.59375 33.472656 C 19.5625 33.496094 19.5625 33.496094 19.53125 33.519531 C 19.449219 33.578125 19.371094 33.636719 19.300781 33.710938 C 19.320312 33.722656 19.34375 33.734375 19.367188 33.746094 C 19.433594 33.71875 19.433594 33.71875 19.515625 33.679688 C 19.6875 33.59375 19.863281 33.515625 20.042969 33.441406 C 20.273438 33.34375 20.5 33.238281 20.730469 33.125 C 20.902344 33.042969 21.074219 32.964844 21.25 32.890625 C 21.5 32.777344 21.75 32.664062 22 32.542969 C 22.171875 32.457031 22.347656 32.375 22.523438 32.292969 C 22.558594 32.277344 22.589844 32.261719 22.625 32.246094 C 22.875 32.128906 23.121094 32.015625 23.367188 31.898438 C 23.554688 31.8125 23.738281 31.726562 23.921875 31.636719 C 24.058594 31.570312 24.195312 31.511719 24.332031 31.453125 C 24.527344 31.367188 24.714844 31.269531 24.90625 31.171875 C 25.070312 31.085938 25.234375 31.011719 25.402344 30.941406 C 25.539062 30.886719 25.667969 30.824219 25.800781 30.761719 C 25.90625 30.710938 26.011719 30.660156 26.121094 30.609375 C 26.445312 30.457031 26.769531 30.304688 27.089844 30.136719 C 27.246094 30.054688 27.402344 29.984375 27.5625 29.917969 C 27.6875 29.867188 27.808594 29.808594 27.929688 29.753906 C 27.949219 29.742188 27.96875 29.734375 27.992188 29.722656 C 28.21875 29.613281 28.386719 29.496094 28.535156 29.292969 C 28.535156 29.269531 28.535156 29.246094 28.535156 29.222656 C 28.554688 29.222656 28.578125 29.222656 28.601562 29.222656 C 28.609375 29.179688 28.621094 29.132812 28.632812 29.085938 C 28.65625 29.085938 28.675781 29.085938 28.699219 29.085938 C 28.746094 29.039062 28.746094 29.039062 28.789062 28.972656 C 28.804688 28.949219 28.824219 28.925781 28.839844 28.902344 C 28.859375 28.875 28.878906 28.847656 28.898438 28.824219 C 29.035156 28.632812 29.179688 28.445312 29.328125 28.265625 C 29.46875 28.097656 29.601562 27.925781 29.734375 27.75 C 29.925781 27.492188 30.117188 27.238281 30.320312 26.992188 C 30.4375 26.847656 30.554688 26.699219 30.667969 26.550781 C 30.6875 26.527344 30.703125 26.503906 30.722656 26.476562 C 30.773438 26.417969 30.773438 26.417969 30.765625 26.34375 C 30.789062 26.34375 30.8125 26.34375 30.832031 26.34375 C 30.894531 26.273438 30.949219 26.207031 31.003906 26.132812 C 31.015625 26.109375 31.03125 26.089844 31.046875 26.070312 C 31.125 25.96875 31.175781 25.886719 31.199219 25.761719 C 31.101562 25.714844 31.101562 25.714844 31.011719 25.773438 Z M 31.011719 25.773438 "/>
<path style=" stroke:none;fill-rule:nonzero;fill:rgb(87.843138%,87.843138%,87.843138%);fill-opacity:1;" d="M 21.101562 8.222656 C 21.144531 8.238281 21.144531 8.238281 21.1875 8.25 C 22.144531 8.53125 23.226562 9.011719 24 9.660156 C 24.03125 9.671875 24.066406 9.683594 24.101562 9.695312 C 24.101562 9.71875 24.101562 9.742188 24.101562 9.765625 C 24.121094 9.769531 24.144531 9.777344 24.167969 9.785156 C 24.300781 9.847656 24.421875 9.933594 24.535156 10.039062 C 24.535156 10.0625 24.535156 10.082031 24.535156 10.105469 C 24.550781 10.113281 24.570312 10.121094 24.585938 10.128906 C 24.695312 10.191406 24.785156 10.269531 24.878906 10.351562 C 24.898438 10.371094 24.917969 10.386719 24.9375 10.40625 C 25.75 11.136719 25.75 11.136719 25.898438 11.441406 C 25.765625 11.386719 25.667969 11.285156 25.5625 11.183594 C 25.441406 11.058594 25.441406 11.058594 25.300781 10.964844 C 25.300781 10.941406 25.300781 10.917969 25.300781 10.894531 C 25.28125 10.886719 25.261719 10.875 25.242188 10.867188 C 25.160156 10.824219 25.085938 10.773438 25.007812 10.722656 C 24.980469 10.707031 24.953125 10.6875 24.925781 10.667969 C 24.90625 10.652344 24.886719 10.636719 24.867188 10.621094 C 24.867188 10.597656 24.867188 10.574219 24.867188 10.550781 C 24.84375 10.542969 24.816406 10.535156 24.792969 10.523438 C 24.699219 10.484375 24.628906 10.4375 24.550781 10.375 C 24.183594 10.109375 23.792969 9.882812 23.398438 9.660156 C 23.347656 9.632812 23.347656 9.632812 23.292969 9.601562 C 21.144531 8.449219 18.582031 8.210938 16.265625 8.921875 C 16.207031 8.941406 16.148438 8.957031 16.085938 8.972656 C 15.578125 9.128906 15.101562 9.339844 14.632812 9.59375 C 14.601562 9.609375 14.570312 9.625 14.539062 9.644531 C 14.132812 9.863281 13.753906 10.113281 13.394531 10.40625 C 13.3125 10.472656 13.234375 10.535156 13.148438 10.597656 C 13.046875 10.675781 12.957031 10.765625 12.867188 10.859375 C 12.839844 10.882812 12.8125 10.902344 12.785156 10.925781 C 12.695312 10.996094 12.695312 10.996094 12.617188 11.101562 C 12.535156 11.203125 12.535156 11.203125 12.453125 11.265625 C 12.363281 11.34375 12.296875 11.421875 12.222656 11.515625 C 12.195312 11.546875 12.171875 11.582031 12.144531 11.613281 C 12.121094 11.648438 12.09375 11.683594 12.066406 11.714844 C 12.042969 11.75 12.015625 11.78125 11.988281 11.816406 C 11.867188 11.964844 11.867188 11.964844 11.765625 12.128906 C 11.746094 12.128906 11.722656 12.128906 11.699219 12.128906 C 11.691406 12.152344 11.683594 12.179688 11.671875 12.203125 C 11.632812 12.296875 11.59375 12.363281 11.535156 12.441406 C 11.234375 12.875 10.996094 13.347656 10.792969 13.84375 C 10.769531 13.902344 10.746094 13.960938 10.71875 14.015625 C 10.46875 14.609375 10.3125 15.226562 10.195312 15.859375 C 10.191406 15.886719 10.183594 15.914062 10.179688 15.945312 C 10.089844 16.460938 10.054688 16.972656 10.054688 17.492188 C 10.054688 17.523438 10.054688 17.550781 10.054688 17.578125 C 10.058594 18.050781 10.085938 18.511719 10.167969 18.980469 C 10.171875 19.019531 10.171875 19.019531 10.179688 19.0625 C 10.257812 19.492188 10.390625 19.90625 10.535156 20.316406 C 10.542969 20.339844 10.550781 20.363281 10.558594 20.386719 C 10.8125 21.109375 11.207031 21.738281 11.667969 22.335938 C 11.703125 22.386719 11.703125 22.386719 11.742188 22.433594 C 11.855469 22.582031 11.96875 22.722656 12.101562 22.851562 C 12.167969 22.921875 12.238281 22.992188 12.304688 23.0625 C 12.371094 23.132812 12.371094 23.132812 12.464844 23.195312 C 12.464844 23.214844 12.464844 23.238281 12.464844 23.261719 C 12.492188 23.273438 12.492188 23.273438 12.519531 23.285156 C 12.621094 23.34375 12.703125 23.410156 12.792969 23.484375 C 13.621094 24.152344 14.632812 24.609375 15.660156 24.824219 C 15.707031 24.832031 15.753906 24.84375 15.800781 24.855469 C 16.652344 25.046875 17.660156 25.023438 18.5 24.804688 C 18.535156 24.796875 18.535156 24.796875 18.566406 24.785156 C 18.703125 24.753906 18.835938 24.710938 18.964844 24.667969 C 18.996094 24.65625 18.996094 24.65625 19.03125 24.644531 C 19.746094 24.414062 20.394531 24.054688 21 23.605469 C 20.949219 23.722656 20.882812 23.8125 20.804688 23.914062 C 20.78125 23.941406 20.757812 23.972656 20.734375 24 C 20.671875 24.078125 20.605469 24.152344 20.535156 24.222656 C 20.511719 24.222656 20.488281 24.222656 20.464844 24.222656 C 20.445312 24.265625 20.421875 24.3125 20.398438 24.359375 C 20.378906 24.359375 20.355469 24.359375 20.332031 24.359375 C 20.324219 24.378906 20.320312 24.394531 20.3125 24.414062 C 20.207031 24.597656 20.019531 24.734375 19.867188 24.871094 C 19.847656 24.886719 19.832031 24.90625 19.8125 24.921875 C 19.21875 25.464844 18.535156 25.867188 17.800781 26.175781 C 17.769531 26.1875 17.742188 26.199219 17.710938 26.210938 C 17.507812 26.292969 17.292969 26.355469 17.082031 26.417969 C 17.054688 26.425781 17.027344 26.433594 16.996094 26.441406 C 16.449219 26.597656 15.90625 26.636719 15.339844 26.632812 C 15.308594 26.632812 15.277344 26.632812 15.246094 26.632812 C 14.761719 26.632812 14.304688 26.605469 13.832031 26.480469 C 13.769531 26.46875 13.703125 26.453125 13.640625 26.4375 C 13.078125 26.296875 12.546875 26.117188 12.042969 25.824219 C 11.949219 25.773438 11.855469 25.722656 11.761719 25.675781 C 11.140625 25.363281 10.523438 24.855469 10.066406 24.324219 C 10.066406 24.300781 10.066406 24.277344 10.066406 24.253906 C 10.035156 24.246094 10 24.234375 9.964844 24.222656 C 9.90625 24.148438 9.847656 24.074219 9.789062 23.996094 C 9.765625 23.964844 9.765625 23.964844 9.738281 23.929688 C 9.691406 23.867188 9.644531 23.804688 9.601562 23.742188 C 9.578125 23.714844 9.558594 23.6875 9.539062 23.660156 C 9.507812 23.617188 9.476562 23.570312 9.445312 23.527344 C 9.414062 23.484375 9.382812 23.441406 9.347656 23.402344 C 9.246094 23.265625 9.160156 23.128906 9.082031 22.976562 C 9.035156 22.886719 8.980469 22.792969 8.929688 22.703125 C 8.5 21.941406 8.214844 21.136719 8.050781 20.269531 C 8.039062 20.199219 8.019531 20.125 8 20.050781 C 7.851562 19.441406 7.847656 18.816406 7.851562 18.191406 C 7.851562 18.148438 7.851562 18.105469 7.851562 18.0625 C 7.855469 17.417969 7.882812 16.800781 8 16.171875 C 8.007812 16.121094 8.015625 16.070312 8.023438 16.019531 C 8.082031 15.679688 8.179688 15.347656 8.277344 15.019531 C 8.296875 14.949219 8.316406 14.875 8.335938 14.804688 C 8.394531 14.597656 8.46875 14.40625 8.558594 14.210938 C 8.601562 14.109375 8.640625 14.003906 8.675781 13.902344 C 8.757812 13.679688 8.859375 13.480469 8.96875 13.273438 C 9.019531 13.179688 9.070312 13.082031 9.113281 12.980469 C 9.417969 12.355469 9.863281 11.765625 10.324219 11.253906 C 10.386719 11.179688 10.449219 11.109375 10.511719 11.035156 C 10.753906 10.75 11.019531 10.484375 11.300781 10.242188 C 11.328125 10.21875 11.328125 10.21875 11.359375 10.191406 C 11.429688 10.132812 11.5 10.074219 11.570312 10.015625 C 11.59375 9.996094 11.617188 9.976562 11.640625 9.957031 C 11.992188 9.660156 11.992188 9.660156 12.101562 9.660156 C 12.101562 9.636719 12.101562 9.617188 12.101562 9.59375 C 12.15625 9.550781 12.15625 9.550781 12.234375 9.503906 C 12.261719 9.484375 12.292969 9.46875 12.320312 9.449219 C 12.351562 9.433594 12.382812 9.414062 12.414062 9.394531 C 12.441406 9.378906 12.46875 9.359375 12.5 9.34375 C 12.558594 9.304688 12.617188 9.269531 12.679688 9.234375 C 12.765625 9.183594 12.851562 9.128906 12.9375 9.074219 C 13.082031 8.984375 13.226562 8.910156 13.382812 8.835938 C 13.40625 8.824219 13.429688 8.8125 13.457031 8.800781 C 13.503906 8.777344 13.554688 8.753906 13.601562 8.734375 C 13.65625 8.707031 13.707031 8.679688 13.761719 8.65625 C 14.0625 8.503906 14.382812 8.398438 14.699219 8.289062 C 14.722656 8.28125 14.75 8.273438 14.773438 8.265625 C 15.394531 8.054688 16.019531 7.933594 16.667969 7.84375 C 16.695312 7.839844 16.726562 7.835938 16.757812 7.832031 C 18.214844 7.644531 19.695312 7.816406 21.101562 8.222656 Z M 21.101562 8.222656 "/>
<path style=" stroke:none;fill-rule:nonzero;fill:rgb(87.450981%,87.450981%,87.450981%);fill-opacity:1;" d="M 31.101562 20.179688 C 31.109375 20.179688 31.121094 20.179688 31.132812 20.179688 C 31.132812 20.203125 31.136719 20.226562 31.136719 20.25 C 31.140625 20.363281 31.144531 20.472656 31.148438 20.585938 C 31.148438 20.625 31.152344 20.660156 31.152344 20.699219 C 31.160156 20.871094 31.164062 21.042969 31.183594 21.210938 C 31.203125 21.390625 31.203125 21.5625 31.203125 21.742188 C 31.203125 21.773438 31.203125 21.804688 31.203125 21.835938 C 31.203125 21.910156 31.199219 21.988281 31.199219 22.0625 C 31.1875 22.0625 31.179688 22.0625 31.167969 22.0625 C 31.15625 21.882812 31.144531 21.703125 31.132812 21.515625 C 31.121094 21.515625 31.113281 21.515625 31.101562 21.515625 C 31.054688 21.242188 31.070312 20.96875 31.082031 20.691406 C 31.082031 20.644531 31.085938 20.59375 31.085938 20.542969 C 31.089844 20.421875 31.09375 20.300781 31.101562 20.179688 Z M 31.101562 20.179688 "/>
<path style=" stroke:none;fill-rule:nonzero;fill:rgb(79.215688%,79.607844%,79.607844%);fill-opacity:1;" d="M 5.066406 21.890625 C 5.078125 21.890625 5.089844 21.890625 5.101562 21.890625 C 5.101562 22.265625 5.101562 22.636719 5.101562 23.023438 C 5.089844 23.023438 5.078125 23.023438 5.066406 23.023438 C 5.054688 22.941406 5.042969 22.863281 5.035156 22.78125 C 5 22.804688 4.96875 22.828125 4.933594 22.851562 C 4.929688 22.785156 4.929688 22.71875 4.925781 22.652344 C 4.925781 22.613281 4.925781 22.578125 4.921875 22.539062 C 4.933594 22.421875 4.957031 22.417969 5.035156 22.335938 C 5.050781 22.226562 5.050781 22.226562 5.054688 22.109375 C 5.058594 22.046875 5.058594 22.046875 5.0625 21.984375 C 5.0625 21.953125 5.066406 21.921875 5.066406 21.890625 Z M 5.066406 21.890625 "/>
<path style=" stroke:none;fill-rule:nonzero;fill:rgb(79.215688%,79.215688%,79.215688%);fill-opacity:1;" d="M 31.101562 14.628906 C 31.121094 14.628906 31.144531 14.628906 31.167969 14.628906 C 31.222656 15.398438 31.222656 15.398438 31.167969 15.65625 C 31.144531 15.667969 31.121094 15.679688 31.101562 15.691406 C 31.101562 15.339844 31.101562 14.988281 31.101562 14.628906 Z M 31.101562 14.628906 "/>
<path style=" stroke:none;fill-rule:nonzero;fill:rgb(91.764706%,91.764706%,91.764706%);fill-opacity:1;" d="M 12.035156 27.269531 C 12.070312 27.285156 12.070312 27.285156 12.105469 27.300781 C 12.199219 27.339844 12.296875 27.375 12.394531 27.410156 C 12.425781 27.421875 12.457031 27.4375 12.492188 27.449219 C 12.527344 27.460938 12.527344 27.460938 12.566406 27.476562 C 12.554688 27.519531 12.542969 27.566406 12.535156 27.613281 C 12.457031 27.570312 12.378906 27.523438 12.300781 27.480469 C 12.269531 27.460938 12.269531 27.460938 12.234375 27.441406 C 12.070312 27.347656 12.070312 27.347656 12.035156 27.269531 Z M 12.035156 27.269531 "/>
<path style=" stroke:none;fill-rule:nonzero;fill:rgb(96.862745%,96.862745%,96.862745%);fill-opacity:1;" d="M 25.5 10.996094 C 25.632812 11.132812 25.765625 11.269531 25.898438 11.410156 C 25.800781 11.410156 25.800781 11.410156 25.742188 11.359375 C 25.722656 11.339844 25.707031 11.320312 25.683594 11.296875 C 25.664062 11.273438 25.644531 11.253906 25.625 11.230469 C 25.605469 11.210938 25.585938 11.191406 25.566406 11.167969 C 25.539062 11.140625 25.511719 11.113281 25.484375 11.085938 C 25.46875 11.066406 25.449219 11.050781 25.433594 11.03125 C 25.457031 11.019531 25.476562 11.007812 25.5 10.996094 Z M 25.5 10.996094 "/>
<path style=" stroke:none;fill-rule:nonzero;fill:rgb(86.274511%,86.274511%,86.274511%);fill-opacity:1;" d="M 12.566406 27.511719 C 12.664062 27.527344 12.664062 27.527344 12.765625 27.542969 C 12.765625 27.648438 12.765625 27.648438 12.734375 27.714844 C 12.652344 27.683594 12.652344 27.683594 12.566406 27.648438 C 12.566406 27.601562 12.566406 27.558594 12.566406 27.511719 Z M 12.566406 27.511719 "/>
<path style=" stroke:none;fill-rule:nonzero;fill:rgb(96.470588%,96.470588%,96.470588%);fill-opacity:1;" d="M 20.964844 23.605469 C 20.964844 23.753906 20.894531 23.800781 20.800781 23.914062 C 20.757812 23.890625 20.710938 23.867188 20.667969 23.84375 C 20.765625 23.765625 20.863281 23.6875 20.964844 23.605469 Z M 20.964844 23.605469 "/>
<path style=" stroke:none;fill-rule:nonzero;fill:rgb(87.450981%,87.450981%,87.450981%);fill-opacity:1;" d="M 3.367188 22.199219 C 3.386719 22.199219 3.410156 22.199219 3.433594 22.199219 C 3.433594 22.300781 3.433594 22.402344 3.433594 22.507812 C 3.398438 22.523438 3.398438 22.523438 3.367188 22.542969 C 3.335938 22.414062 3.335938 22.328125 3.367188 22.199219 Z M 3.367188 22.199219 "/>
<path style=" stroke:none;fill-rule:nonzero;fill:rgb(84.705883%,84.705883%,84.705883%);fill-opacity:1;" d="M 13.898438 26.414062 C 13.980469 26.40625 13.980469 26.40625 14.066406 26.414062 C 14.089844 26.449219 14.109375 26.480469 14.132812 26.515625 C 14.046875 26.503906 13.957031 26.492188 13.867188 26.480469 C 13.878906 26.460938 13.886719 26.4375 13.898438 26.414062 Z M 13.898438 26.414062 "/>
<path style=" stroke:none;fill-rule:nonzero;fill:rgb(87.843138%,87.843138%,87.843138%);fill-opacity:1;" d="M 3.734375 19.117188 C 3.746094 19.117188 3.753906 19.117188 3.765625 19.117188 C 3.765625 19.207031 3.765625 19.296875 3.765625 19.390625 C 3.734375 19.390625 3.699219 19.390625 3.667969 19.390625 C 3.695312 19.15625 3.695312 19.15625 3.734375 19.117188 Z M 3.734375 19.117188 "/>
</g>
</svg>
